<?xml version="1.0" encoding="UTF-8"?>
<!DOCTYPE svg PUBLIC "-//W3C//DTD SVG 1.1//EN" "http://www.w3.org/Graphics/SVG/1.1/DTD/svg11.dtd">
<svg version="1.1" xmlns="http://www.w3.org/2000/svg" xmlns:xlink="http://www.w3.org/1999/xlink" x="0" y="0" width="595.276" height="841.89" viewBox="0, 0, 595.276, 841.89">
  <g id="Background">
    <rect x="0" y="0" width="595.276" height="841.89" fill="#FFFFFF"/>
  </g>
  <g id="Layer_1"/>
  <g id="Layer_2">
    <path d="M259.669,274.901 C257.616,274.901 255.951,272.968 255.951,270.584 C255.951,268.199 258.695,264.587 260.749,264.587 C262.802,264.587 263.387,268.199 263.387,270.584 C263.387,272.968 261.723,274.901 259.669,274.901 z" fill="#000000"/>
    <path d="M315.801,272.503 C313.747,272.503 312.083,270.194 312.083,267.345 C312.083,264.497 313.747,262.188 315.801,262.188 C317.854,262.188 319.519,264.497 319.519,267.345 C319.519,270.194 317.854,272.503 315.801,272.503 z" fill="#000000"/>
    <path d="M243.477,248.515 C247.781,243.881 256.925,242.076 262.428,246.356" fill-opacity="0" stroke="#000000" stroke-width="4" stroke-linecap="round" stroke-linejoin="round"/>
    <path d="M308.005,240.599 C315.371,237.576 323.574,238.732 328.874,244.917" fill-opacity="0" stroke="#000000" stroke-width="4" stroke-linecap="round" stroke-linejoin="round"/>
    <path d="M281.378,307.285 C277.808,317.192 281.45,323.999 292.652,321.198" fill-opacity="0" stroke="#000000" stroke-width="4" stroke-linecap="round" stroke-linejoin="round"/>
    <path d="M283.537,362.457 C289.932,362.744 296.832,363.303 302.967,361.258" fill-opacity="0" stroke="#000000" stroke-width="4" stroke-linecap="round" stroke-linejoin="round"/>
    <path d="M199.1,215.411 C194.364,205.577 197.098,184.707 211.094,184.707" fill-opacity="0" stroke="#000000" stroke-width="4" stroke-linecap="round" stroke-linejoin="round"/>
    <path d="M169.115,262.428 C160.366,272.626 160.546,288.477 171.993,296.491" fill-opacity="0" stroke="#000000" stroke-width="4" stroke-linecap="round" stroke-linejoin="round"/>
    <path d="M165.277,319.999 C156.459,339.6 167.117,366.274 188.305,372.052" fill-opacity="0" stroke="#000000" stroke-width="4" stroke-linecap="round" stroke-linejoin="round"/>
    <path d="M423.866,306.326 C429.286,314.922 429.198,322.893 422.427,330.793" fill-opacity="0" stroke="#000000" stroke-width="4" stroke-linecap="round" stroke-linejoin="round"/>
    <path d="M429.144,315.681 C444.282,306.675 447.3,276.111 426.745,271.543" fill-opacity="0" stroke="#000000" stroke-width="4" stroke-linecap="round" stroke-linejoin="round"/>
    <path d="M261.948,172.233 C270.009,146.331 293.976,144.949 314.961,155.442" fill-opacity="0" stroke="#000000" stroke-width="4" stroke-linecap="round" stroke-linejoin="round"/>
    <path d="M296.73,147.766 C301.003,139.342 307.772,133.133 317.6,133.133" fill-opacity="0" stroke="#000000" stroke-width="4" stroke-linecap="round" stroke-linejoin="round"/>
    <path d="M275.381,151.364 C268.037,98.036 358.657,81.935 364.136,136.731" fill-opacity="0" stroke="#000000" stroke-width="4" stroke-linecap="round" stroke-linejoin="round"/>
    <path d="M426.505,217.57 C461.739,178.772 410.004,105.454 364.856,140.569" fill-opacity="0" stroke="#000000" stroke-width="4" stroke-linecap="round" stroke-linejoin="round"/>
    <path d="M451.213,287.375 C479.075,263.738 465.546,214.981 426.505,218.53" fill-opacity="0" stroke="#000000" stroke-width="4" stroke-linecap="round" stroke-linejoin="round"/>
    <path d="M438.979,354.541 C470.292,352.891 481.232,291.03 452.652,287.855" fill-opacity="0" stroke="#000000" stroke-width="4" stroke-linecap="round" stroke-linejoin="round"/>
    <path d="M381.648,394.841 C411.361,415.465 445.927,391.924 437.779,355.261" fill-opacity="0" stroke="#000000" stroke-width="4" stroke-linecap="round" stroke-linejoin="round"/>
    <path d="M321.678,425.785 C345.611,446.259 383.155,425.196 379.729,394.361" fill-opacity="0" stroke="#000000" stroke-width="4" stroke-linecap="round" stroke-linejoin="round"/>
    <path d="M261.468,424.586 C272.671,449.538 306.343,442.873 320.239,424.346" fill-opacity="0" stroke="#000000" stroke-width="4" stroke-linecap="round" stroke-linejoin="round"/>
    <path d="M212.053,396.52 C204.369,426.067 240.342,430.951 260.269,420.988" fill-opacity="0" stroke="#000000" stroke-width="4" stroke-linecap="round" stroke-linejoin="round"/>
    <path d="M164.557,355.741 C146.394,387.338 182.276,412.317 211.573,396.04" fill-opacity="0" stroke="#000000" stroke-width="4" stroke-linecap="round" stroke-linejoin="round"/>
    <path d="M156.161,281.138 C112.302,285.479 119.105,368.243 164.317,356.94" fill-opacity="0" stroke="#000000" stroke-width="4" stroke-linecap="round" stroke-linejoin="round"/>
    <path d="M149.205,281.138 C94.817,257.937 153.817,175.394 196.941,208.935" fill-opacity="0" stroke="#000000" stroke-width="4" stroke-linecap="round" stroke-linejoin="round"/>
    <path d="M194.542,207.256 C141.402,169.92 218.021,90.885 261.468,134.332 C266.728,139.592 273.81,141.374 276.341,148.965" fill-opacity="0" stroke="#000000" stroke-width="4" stroke-linecap="round" stroke-linejoin="round"/>
    <path d="M132.893,604.975 C140.309,608.717 147.779,611.982 155.921,613.611" fill-opacity="0" stroke="#000000" stroke-width="4" stroke-linecap="round" stroke-linejoin="round"/>
    <path d="M131.454,603.056 C132.364,561.303 138.899,470.866 158.08,436.34" fill-opacity="0" stroke="#000000" stroke-width="4" stroke-linecap="round" stroke-linejoin="round"/>
    <path d="M126.176,747.943 C126.247,701.315 129.893,654.819 139.85,610.013" fill-opacity="0" stroke="#000000" stroke-width="4" stroke-linecap="round" stroke-linejoin="round"/>
    <path d="M149.924,768.812 L149.924,768.812" fill-opacity="0" stroke="#000000" stroke-width="4" stroke-linecap="round" stroke-linejoin="round"/>
    <path d="M148.965,768.812 C146.753,693.807 154.314,619.657 166.476,546.684 C171.026,519.384 180.45,492.167 183.508,464.646" fill-opacity="0" stroke="#000000" stroke-width="4" stroke-linecap="round" stroke-linejoin="round"/>
    <path d="M430.949,393.572 C447.606,405.229 476.727,409.622 490.083,425.649" fill-opacity="0" stroke="#000000" stroke-width="4" stroke-linecap="round" stroke-linejoin="round"/>
    <path d="M490.919,428.718 C510.127,482.674 509.104,542.897 517.139,599.145" fill-opacity="0" stroke="#000000" stroke-width="4" stroke-linecap="round" stroke-linejoin="round"/>
    <path d="M396.362,766.504 C412.964,710.272 414.636,650.443 424.255,592.729 C429.96,558.499 422.959,522.968 430.949,487.014" fill-opacity="0" stroke="#000000" stroke-width="4" stroke-linecap="round" stroke-linejoin="round"/>
    <path d="M438.759,789.655 C455.318,729.041 476.965,668.372 485.899,605.839" fill-opacity="0" stroke="#000000" stroke-width="4" stroke-linecap="round" stroke-linejoin="round"/>
    <path d="M423.697,612.533 C454.089,606.277 485.389,602.73 516.302,598.866" fill-opacity="0" stroke="#000000" stroke-width="4" stroke-linecap="round" stroke-linejoin="round"/>
    <path d="M160.386,434.017 C171.879,415.482 195.035,411.558 210.593,398.593" fill-opacity="0" stroke="#000000" stroke-width="4" stroke-linecap="round" stroke-linejoin="round"/>
  </g>
</svg>
