<?xml version="1.0" encoding="UTF-8"?>
<!DOCTYPE svg PUBLIC "-//W3C//DTD SVG 1.1//EN" "http://www.w3.org/Graphics/SVG/1.1/DTD/svg11.dtd">
<svg version="1.1" xmlns="http://www.w3.org/2000/svg" xmlns:xlink="http://www.w3.org/1999/xlink" x="0" y="0" width="595.276" height="841.89" viewBox="0, 0, 595.276, 841.89">
  <g id="Background">
    <rect x="0" y="0" width="595.276" height="841.89" fill="#FFFFFF"/>
  </g>
  <g id="Layer_1.">
    <path d="M341.955,208.197 C351.333,221.016 347.328,197.656 359.402,199.668 C366.619,200.871 368.319,213.05 368.319,218.665 C368.319,239.641 355.652,236.376 352.036,245.417 C345.863,260.849 346.197,286.766 348.934,303.185 C350.06,309.943 352.453,325.672 360.565,325.672 C362.289,325.672 364.742,326.072 365.993,324.509 C369.423,320.222 364.416,308.02 365.218,302.409 C366.691,292.098 373.439,277.594 379.95,269.455 C413.867,227.058 409.465,164.229 383.44,115.536 C371.421,93.049 349.322,85.683 321.795,80.255 C281.668,72.343 208.804,92.88 239.214,123.29 C245.616,129.693 266.278,119.49 273.719,118.25 C311.813,111.901 350.342,133.204 344.282,175.63 C342.874,185.481 334.539,195.708 337.691,205.483 z" fill-opacity="0" stroke="#000000" stroke-width="4" stroke-linecap="round" stroke-linejoin="round" id="Shape"/>
    <path d="M274.782,341.225 C275.537,345.656 278.484,356.708 278.484,364.645" fill-opacity="0" stroke="#000000" stroke-width="4" stroke-linecap="round" stroke-linejoin="round"/>
    <path d="M276.044,352.627 C253.619,365.603 228.986,389.944 244.254,409.028 C261.216,430.231 373.224,397.684 381.889,354.362" fill-opacity="0" stroke="#000000" stroke-width="4" stroke-linecap="round" stroke-linejoin="round"/>
    <path d="M118.638,608.308 C124.843,554.913 128.338,519.765 137.157,466.852 C138.735,457.383 142.703,436.381 148.491,421.047 L148.752,420.99 C183.289,398.336 220.863,374.537 260.53,361.315" fill-opacity="0" stroke="#000000" stroke-width="4" stroke-linecap="round" stroke-linejoin="round"/>
    <path d="M173.304,455.165 C161.29,504.971 156.134,556.245 147.715,606.757 C144.459,626.298 145.547,646.518 142.288,666.076 C139.279,684.125 140.649,703.05 137.635,721.13 C133.091,748.396 139.854,777.601 135.309,804.874" fill-opacity="0" stroke="#000000" stroke-width="4" stroke-linecap="round" stroke-linejoin="round"/>
    <path d="M119.801,611.41 C125.992,618.51 135.382,620.371 143.063,624.98" fill-opacity="0" stroke="#000000" stroke-width="4" stroke-linecap="round" stroke-linejoin="round"/>
    <path d="M124.453,620.327 C115.349,677.632 113.985,736.436 113.985,795.182" fill-opacity="0" stroke="#000000" stroke-width="4" stroke-linecap="round" stroke-linejoin="round"/>
    <path d="M359.014,327.61 C360.043,339.683 368.133,351.456 380.726,353.974" fill-opacity="0" stroke="#000000" stroke-width="4" stroke-linecap="round" stroke-linejoin="round"/>
    <path d="M384.603,355.913 C418.292,370.728 486.547,393.192 514.096,415.231" fill-opacity="0" stroke="#000000" stroke-width="4" stroke-linecap="round" stroke-linejoin="round"/>
    <path d="M514.872,417.558 C520.936,447.382 522.661,455.378 525.727,473.775 C532.499,514.403 546.257,595.03 541.235,596.289 C503.164,605.835 477.975,612.733 438.957,619.236" fill-opacity="0" stroke="#000000" stroke-width="4" stroke-linecap="round" stroke-linejoin="round"/>
    <path d="M412.517,800.61 C421.052,735.797 430.458,670.419 441.595,605.982 C444.39,517.488 445.085,478.254 445.085,475.713" fill-opacity="0" stroke="#000000" stroke-width="4" stroke-linecap="round" stroke-linejoin="round"/>
    <path d="M513.742,604.785 C496.5,701 474.177,741.201 462.919,808.751" fill-opacity="0" stroke="#000000" stroke-width="4" stroke-linecap="round" stroke-linejoin="round"/>
    <path d="M258.52,204.75 C259.711,213.553 249.892,252.546 253.559,257.436 C256.037,260.74 271.683,259.762 275.658,259.762" fill-opacity="0" stroke="#000000" stroke-width="4" stroke-linecap="round" stroke-linejoin="round"/>
    <path d="M272.556,296.982 C280.538,295.773 286.489,298.132 293.492,301.634" fill-opacity="0" stroke="#000000" stroke-width="4" stroke-linecap="round" stroke-linejoin="round"/>
    <path d="M242.703,203.157 C247.388,204.602 252.599,203.514 257.436,204.32" fill-opacity="0" stroke="#000000" stroke-width="4" stroke-linecap="round" stroke-linejoin="round"/>
    <path d="M280.698,203.545 C287.903,203.234 294.864,205.483 302.022,205.483" fill-opacity="0" stroke="#000000" stroke-width="4" stroke-linecap="round" stroke-linejoin="round"/>
    <path d="M289.89,340.079 C225.422,364.309 226.799,163.023 245.395,125.831" fill-opacity="0" stroke="#000000" stroke-width="4" stroke-linecap="round" stroke-linejoin="round"/>
  </g>
  <g id="Layer_3">
    <g>
      <path d="M238.88,557.363 C233.633,557.363 229.38,551.879 229.38,545.113 C229.38,538.348 233.633,532.863 238.88,532.863 C244.127,532.863 248.38,538.348 248.38,545.113 C248.38,551.879 244.127,557.363 238.88,557.363 z" fill="#000000"/>
      <path d="M238.88,532.863 C244.127,532.863 248.38,538.348 248.38,545.113 C248.38,551.879 244.127,557.363 238.88,557.363 C233.633,557.363 229.38,551.879 229.38,545.113 C229.38,538.348 233.633,532.863 238.88,532.863 z M238.88,537.363 C236.405,537.363 233.88,540.619 233.88,545.113 C233.88,549.608 236.405,552.863 238.88,552.863 C241.355,552.863 243.88,549.608 243.88,545.113 C243.88,540.619 241.355,537.363 238.88,537.363 z" fill="#000000"/>
    </g>
    <g>
      <path d="M345.638,557.912 C339.839,557.912 335.138,552.427 335.138,545.662 C335.138,538.896 339.839,533.412 345.638,533.412 C351.437,533.412 356.138,538.896 356.138,545.662 C356.138,552.427 351.437,557.912 345.638,557.912 z" fill="#000000"/>
      <path d="M345.638,533.412 C351.437,533.412 356.138,538.896 356.138,545.662 C356.138,552.427 351.437,557.912 345.638,557.912 C339.839,557.912 335.138,552.427 335.138,545.662 C335.138,538.896 339.839,533.412 345.638,533.412 z M345.638,537.912 C342.491,537.912 339.638,541.241 339.638,545.662 C339.638,550.083 342.491,553.412 345.638,553.412 C348.784,553.412 351.638,550.083 351.638,545.662 C351.638,541.241 348.784,537.912 345.638,537.912 z" fill="#000000"/>
    </g>
    <path d="M281.334,571.945 C287.566,581.508 252.543,626.131 276.686,632.557 C284.327,634.59 292.255,631.32 299.926,631.32" fill-opacity="0" stroke="#000000" stroke-width="4" stroke-linecap="round" stroke-linejoin="round"/>
    <path d="M261.429,693.963 C282.202,687.67 294.845,684.961 313.357,701.667" fill-opacity="0" stroke="#000000" stroke-width="4" stroke-linecap="round" stroke-linejoin="round"/>
    <path d="M225.138,554.667 C226.887,559.915 228.159,561.823 234.043,563.095" fill-opacity="0" stroke="#000000" stroke-width="4" stroke-linecap="round" stroke-linejoin="round"/>
    <path d="M350.185,564.56 C356.069,563.924 359.249,561.857 361.157,554.542" fill-opacity="0" stroke="#000000" stroke-width="4" stroke-linecap="round" stroke-linejoin="round"/>
  </g>
  <g id="Layer_3">
    <path d="M234.138,271.445 C212.42,281.653 157.636,302.443 138.138,282.945 C104.798,249.605 177.237,211.265 201.638,203.945 C224.47,197.095 245.6,184.356 268.638,177.445 C325.81,160.293 412.83,142.3 472.638,148.945 C493.981,151.316 518.455,163.627 497.138,184.945 C479.361,202.722 430.395,206.48 406.138,209.945" fill-opacity="0" stroke="#000000" stroke-width="4" stroke-linecap="round" stroke-linejoin="round"/>
    <path d="M227.638,210.445 C201.021,211.451 175.099,206.335 148.638,204.445 C130.192,203.127 107.213,201.653 90.638,192.445 C88.34,191.168 76.544,186.632 78.638,182.445 C87.026,165.668 178.276,166.032 196.638,167.445 C266.554,172.823 335.618,191.748 403.638,207.445 C426.83,212.797 484.732,225.103 498.138,247.445 C504.078,257.345 491.27,263.764 483.638,265.945 C461.089,272.387 402.189,279.445 378.138,279.445" fill-opacity="0" stroke="#000000" stroke-width="4" stroke-linecap="round" stroke-linejoin="round"/>
    <path d="M231.138,263.945 C201.065,263.502 172.388,273.973 148.638,292.445 C133.287,304.384 98.798,335.766 110.138,358.445 C112.449,363.067 112.688,366.123 118.638,367.445 C145,373.303 177.296,339.6 196.138,324.945 C239.977,290.847 281.404,222.424 315.138,177.445 C332.827,153.859 373.907,115.013 397.138,96.945 C407.855,88.609 481.852,45.07 492.638,63.945 C495.682,69.272 493.056,76.173 489.638,80.445 C481.795,90.248 409.563,141.041 395.138,143.445" fill-opacity="0" stroke="#000000" stroke-width="4" stroke-linecap="round" stroke-linejoin="round"/>
    <path d="M229.138,242.945 C214.027,249.372 152.667,288.809 161.138,307.445 C165.695,317.47 214.098,310.792 222.638,307.945 C260.438,295.345 298.373,284.327 334.138,266.445 C374.671,246.178 420.915,215.968 468.638,219.945 C497.484,222.349 543.195,247.536 518.138,280.945 C513.312,287.379 507.72,293.575 500.138,296.945 C473.116,308.955 435.308,308.041 406.638,303.945 C393.328,302.043 380.772,294.945 367.138,294.945" fill-opacity="0" stroke="#000000" stroke-width="4" stroke-linecap="round" stroke-linejoin="round"/>
    <path d="M229.138,249.445 C196.457,224.57 154.976,214.947 118.138,197.945 C97.217,188.289 47.371,157.479 62.138,127.945 C69.34,113.539 114.29,113.098 128.138,114.945 C174.202,121.087 221.755,130.976 266.638,142.945 C329.746,159.774 494.674,218.408 546.638,166.445 C556.629,156.454 560.772,137.098 562.138,123.445 C571.168,33.147 436.285,45.822 391.138,83.445 C386.023,87.707 369.638,94.398 369.638,101.945" fill-opacity="0" stroke="#000000" stroke-width="4" stroke-linecap="round" stroke-linejoin="round"/>
    <path d="M222.138,210.445 C203.079,228.699 150.043,267.296 122.638,260.445 C81.877,250.255 100.501,192.693 124.638,172.945 C143.09,157.847 163.432,148.239 184.138,136.945 C215.12,120.045 244.525,127.227 277.138,129.945 C304.393,132.216 331.83,132.169 359.138,134.445 C404.084,138.19 458.476,146.219 498.638,119.445 C527.023,100.521 532.151,39.616 494.138,26.945 C460.358,15.685 416.249,22.399 392.638,49.945 C384.996,58.86 375.73,84.556 367.138,97.445" fill-opacity="0" stroke="#000000" stroke-width="4" stroke-linecap="round" stroke-linejoin="round"/>
    <path d="M238.138,308.945 C222.389,327.867 197.707,339.516 173.138,336.445 C166.685,335.638 159.666,336.745 154.138,332.445 C150.821,329.865 148.905,324.746 147.638,320.945 C137.367,290.131 221.794,263.62 241.638,260.445 C301.378,250.886 364.201,253.43 420.638,276.945 C434.49,282.717 456.151,287.963 465.138,300.945 C493.705,342.209 385.989,332.658 367.138,327.945" fill-opacity="0" stroke="#000000" stroke-width="4" stroke-linecap="round" stroke-linejoin="round"/>
    <path d="M241.638,315.945 C232.668,313.533 195.055,335.217 203.638,345.945 C214.638,359.695 250.007,318.1 255.638,311.445 C300.398,258.546 389.132,161.125 457.638,146.445 C472.266,143.31 493.114,140.055 500.138,156.445 C501.376,159.334 501.787,162.866 499.638,165.445 C482.862,185.576 428.803,202.945 402.138,202.945" fill-opacity="0" stroke="#000000" stroke-width="4" stroke-linecap="round" stroke-linejoin="round"/>
    <path d="M225.638,226.945 C207.598,229.767 191.164,231.802 176.138,218.445 C160.074,204.166 165.553,179.809 183.638,169.945 C192.173,165.289 203.224,164.106 212.638,162.445 C263.919,153.395 345.102,186.023 389.138,212.445 C408.201,223.883 426.888,237.445 443.138,252.445 C445.797,254.9 455.736,264.696 450.638,268.945 C443.852,274.6 399.472,268.778 377.138,279.945" fill-opacity="0" stroke="#000000" stroke-width="4" stroke-linecap="round" stroke-linejoin="round"/>
    <path d="M400.638,176.445 C364.729,174.21 331.033,160.499 296.638,150.945 C282.972,147.149 267.011,145.003 254.138,138.945 C238.033,131.366 181.937,88.358 173.638,72.945 C152.322,33.359 192.328,32.484 216.138,49.945 C227.867,58.546 262.177,83.715 274.638,89.945" fill-opacity="0" stroke="#000000" stroke-width="4" stroke-linecap="round" stroke-linejoin="round"/>
    <path d="M403.138,128.945 L403.138,128.945" fill-opacity="0" stroke="#000000" stroke-width="4" stroke-linecap="round" stroke-linejoin="round"/>
    <path d="M396.638,137.445 C418.187,138.512 474.005,111.875 477.138,89.945 C481.421,59.959 443.905,65.778 427.638,75.945 C343.891,128.287 278.734,225.156 172.638,236.945 C162.889,238.028 150.913,239.949 141.138,238.445 C128.121,236.442 109.146,220.981 106.138,207.945 C98.811,176.197 127.663,146.445 159.138,146.445 C224.19,146.445 281.187,184.325 332.638,219.945 C340.88,225.651 347.03,233.78 355.638,238.945 C373.579,249.709 435.61,257.383 455.138,252.945 C494.376,244.027 552.138,222.804 552.138,173.945 C552.138,166.075 550.443,154.552 545.638,147.945 C532.296,129.6 501.478,137.275 484.138,145.945 C447.859,164.084 412.797,183.932 380.638,208.945 C330.946,247.594 272.21,301.421 212.138,321.445 C200.233,325.413 188.543,325.945 176.138,325.945 C143.238,325.945 143.138,305.226 143.138,276.445 C143.138,259.837 172.234,251.147 183.638,245.445 C211.918,231.305 277.608,242.894 309.138,245.945 C353.153,250.204 401.621,250.796 444.638,241.445 C465.512,236.907 497.793,215.167 495.138,189.945 C493.246,171.974 479.763,163.201 463.138,162.445 C435.619,161.194 404.349,165.81 378.138,173.945 C367.488,177.25 357.617,182.058 346.638,184.445 C328.635,188.359 280.518,192.445 262.138,192.445 C245.258,192.445 228.084,185.919 211.138,184.445 C188.52,182.478 156.531,171.409 159.638,143.445 C161.177,129.59 169.081,122.156 179.638,113.945 C237.57,68.887 307.535,119.098 369.138,130.945 C392.245,135.389 426.084,132.715 448.138,124.445 C467.686,117.114 514.911,90.991 500.638,62.445 C495.262,51.693 476.747,50.889 466.638,49.445 C428.267,43.963 386.772,64.935 360.638,92.445 C345.193,108.702 321.864,145.028 307.638,164.945 C300.186,175.377 294.494,187.568 285.638,196.945 C266.72,216.976 237.787,220.8 213.138,230.445 C183.532,242.03 130.374,244.721 109.638,216.445 C105.905,211.354 103.133,206.478 104.138,199.945 C107.542,177.819 134.38,160.918 156.138,167.445 C188.673,177.205 208.947,200.323 236.638,217.945 C261.967,234.063 341.253,279.966 368.138,284.945 C388.146,288.65 411.279,287.945 431.638,287.945 C463.555,287.945 523.493,255.714 505.138,215.945 C487.179,177.035 456.163,183.432 424.138,199.445 C392.534,215.247 361.698,233.746 335.638,257.945 C309.003,282.677 266.288,328.181 231.138,337.945 C220.694,340.846 209.729,340.427 199.138,342.445 C184.286,345.274 167.893,351.661 154.638,340.445 C118.908,310.212 208.761,277.993 224.638,271.945 C246.28,263.7 279.066,264.088 301.138,271.445 C313.444,275.547 324.342,281.89 336.138,286.945 C348.227,292.126 361.2,294.874 373.138,300.445 C411.342,318.274 456.517,350.724 498.138,326.445 C511.477,318.664 520.584,307.845 524.138,292.445 C528.623,273.008 523.629,253.178 514.638,235.945 C497.21,202.542 478.163,195.102 442.638,184.445 C429.305,180.445 415.3,182.451 401.638,181.945 C389.412,181.492 377.428,177.979 365.138,177.445 C300.703,174.643 200.639,186.661 156.638,126.945 C147.865,115.039 140.475,97.561 141.638,82.445 C143.624,56.626 167.133,55.167 187.638,57.445 C276.726,67.344 366.186,142.671 456.638,97.445 C468.833,91.347 484.081,79.736 485.138,64.945 C485.839,55.132 475.855,44.858 468.638,39.445 C421.591,4.16 341.426,43.894 310.638,84.945" fill-opacity="0" stroke="#000000" stroke-width="4" stroke-linecap="round" stroke-linejoin="round"/>
    <path d="M245.638,204.445 C230.847,234.747 212.415,262.258 191.138,288.445 C175.979,307.102 136.906,338.626 110.638,332.445 C102.999,330.647 95.703,325.548 89.138,321.445 C78.577,314.844 72.315,307.527 68.638,295.445 C59.801,266.411 68.09,247.666 83.138,222.945 C89.708,212.151 95.801,200.533 104.138,190.945 C135.317,155.089 189.912,133.496 237.138,138.945 C290.482,145.1 339.888,186.554 382.638,215.945 C412.146,236.232 420.439,249.249 457.638,256.945 C465.054,258.479 473.042,260.133 480.638,258.445 C489.801,256.409 497.78,247.802 504.138,241.445 C512.267,233.315 516.236,224.973 519.138,213.945 C521.46,205.121 525.88,193.761 524.638,184.445 C519.468,145.673 464.995,110.427 431.638,135.445" fill-opacity="0" stroke="#000000" stroke-width="4" stroke-linecap="round" stroke-linejoin="round"/>
    <path d="M368.138,338.945 C390.757,349.795 437.856,314.163 422.638,298.945 C387.715,264.022 332.498,306.601 296.638,320.945 C280.797,327.281 259.345,338.497 248.138,351.945 C243.399,357.632 245.321,366.603 253.638,362.445" fill-opacity="0" stroke="#000000" stroke-width="4" stroke-linecap="round" stroke-linejoin="round"/>
    <path d="M265.638,355.445 C257.303,347.682 243.957,346.492 237.138,336.945 C224.821,319.702 239.357,297.794 257.138,292.945 C272.235,288.827 282.732,290.718 297.638,294.445 C304.008,296.037 310.775,295.854 317.138,297.445 C337.214,302.464 355.075,319.495 370.638,331.945 C379.411,338.963 395.695,347.79 397.638,359.445" fill-opacity="0" stroke="#000000" stroke-width="4" stroke-linecap="round" stroke-linejoin="round"/>
    <path d="M399.138,356.945 C399.898,354.666 404.103,350.737 403.638,347.945 C402.001,338.123 371.177,340.445 364.638,340.445 C344.884,340.445 325.573,340.558 306.138,344.445 C275.308,350.611 240.345,361.592 209.638,347.945 C170.829,330.697 206.477,298.919 232.638,291.445" fill-opacity="0" stroke="#000000" stroke-width="4" stroke-linecap="round" stroke-linejoin="round"/>
    <path d="M399.138,257.445 C439.26,248.343 480.061,199.66 461.638,155.445 C455.837,141.524 451.755,136.431 437.138,132.445 C426.911,129.656 418.164,125.87 407.138,127.445 C359.527,134.246 273.157,210.741 209.638,223.445 C152.584,234.856 160.293,182.97 175.638,148.445 C182.717,132.517 197.21,120.962 211.638,111.945 C230.956,99.871 257.697,89.085 281.138,94.945 C290.526,97.292 298.3,102.806 307.138,106.445 C352.017,124.925 402.415,151.647 452.138,135.945 C484.66,125.675 517.431,103.797 494.138,65.945 C482.382,46.842 462.783,36.965 440.638,33.945 C411.692,29.998 371.449,45.134 350.638,65.945 C340.155,76.427 333.831,89.954 324.638,101.445 C316.267,111.908 306.317,120.906 298.638,131.945 C293.138,139.852 289.585,148.799 283.638,156.445 C281.2,159.58 229.759,207.104 226.638,209.445 C217.949,215.961 207.966,218.398 198.138,222.445 C176.805,231.229 154.944,240.251 135.138,220.445 C114.35,199.657 134.013,162.031 153.638,148.445 C166.443,139.58 187.423,136.34 202.638,135.445 C214.743,134.733 228.221,143.237 238.638,148.445" fill-opacity="0" stroke="#000000" stroke-width="4" stroke-linecap="round" stroke-linejoin="round"/>
    <path d="M385.138,291.945 C406.884,299.223 448.05,296.731 456.138,270.445 C457.232,266.888 458.38,261.644 455.638,258.445 C441.484,241.932 402.788,249.009 383.638,247.945 C366.65,247.001 348.265,241.82 332.138,236.445 C320.857,232.685 311.86,224.695 301.638,218.945 C296.886,216.272 239.645,192.646 238.138,192.445 C213.522,189.163 177.858,208.085 208.638,235.445 C227.396,252.119 293.387,223.916 313.138,216.945 C342.101,206.722 376.22,198.04 407.138,199.445 C429.208,200.448 468.956,229.157 448.138,253.445 C438.667,264.495 418.759,261.938 406.138,259.945 C366.748,253.725 366.897,257.855 331.638,233.445 C314.975,221.909 305.774,201.997 286.138,194.445 C257.705,183.509 231.438,196.484 210.138,214.945 C192.315,230.391 181.521,251.69 183.138,275.945 C184.405,294.957 214.238,296.25 227.638,289.945 C238.917,284.637 272.334,262.05 280.138,252.445 C287.673,243.171 291.925,231.756 298.638,221.945 C311.545,203.081 341.13,172.058 363.138,165.945 C415.99,151.264 442.21,183.807 451.638,230.945 C454.461,245.063 459.017,260.241 451.638,273.945 C443.341,289.354 428.904,296.445 411.638,296.445 C380.259,296.445 365.06,293.153 343.638,269.945 C312.229,235.919 323.158,189.976 298.638,151.445 C293.629,143.574 282.94,136.261 276.138,129.945 C263.719,118.413 224.177,116.709 211.138,128.445 C204.222,134.669 203.247,144.443 202.138,152.945 C198.283,182.495 211.782,180.9 240.138,184.445" fill-opacity="0" stroke="#000000" stroke-width="4" stroke-linecap="round" stroke-linejoin="round"/>
    <path d="M245.638,81.945 C245.077,73.129 245.991,64.628 249.138,56.445 C250.939,51.763 252.755,47.37 255.138,42.945 C288.487,-18.99 268.454,79.717 290.138,86.945 C306.399,92.365 326.342,18.146 358.138,23.445 C362.595,24.188 361.169,33.022 360.638,35.945 C357.939,50.787 345.623,82.227 356.638,95.445 C359.229,98.554 361.929,100.844 366.138,101.445 C385.252,104.175 474.558,49.842 460.138,121.945 C458.18,131.734 450.598,141.485 443.638,148.445 C435.503,156.579 422.542,153.071 413.138,158.445" fill-opacity="0" stroke="#000000" stroke-width="4" stroke-linecap="round" stroke-linejoin="round"/>
    <path d="M402.638,130.945 C422.372,110.126 430.754,53.268 398.638,38.445 C386.766,32.965 376.115,35.023 364.138,38.445 C338.318,45.822 328.301,61.119 316.638,84.445" fill-opacity="0" stroke="#000000" stroke-width="4" stroke-linecap="round" stroke-linejoin="round"/>
    <path d="M314.138,86.445 C304.259,107.82 293.241,129.75 274.138,144.445 C243.304,168.163 187.709,172.73 169.138,130.945 C153.693,96.194 189.899,35.899 229.638,61.445 C247.133,72.692 250.912,95.128 267.138,105.945" fill-opacity="0" stroke="#000000" stroke-width="4" stroke-linecap="round" stroke-linejoin="round"/>
  </g>
</svg>
