<?xml version="1.0" encoding="UTF-8"?>
<!DOCTYPE svg PUBLIC "-//W3C//DTD SVG 1.1//EN" "http://www.w3.org/Graphics/SVG/1.1/DTD/svg11.dtd">
<svg version="1.1" xmlns="http://www.w3.org/2000/svg" xmlns:xlink="http://www.w3.org/1999/xlink" x="0" y="0" width="841.89" height="595.276" viewBox="0, 0, 841.89, 595.276">
  <g id="Background">
    <rect x="0" y="0" width="841.89" height="595.276" fill="#FFFFFF"/>
  </g>
  <g id="Layer_1"/>
  <g id="Layer_2">
    <path d="M319.322,192.713 C291.849,214.582 303.932,249.593 293.467,274.009 C285.12,293.487 272.193,316.035 267.612,336.648" fill-opacity="0" stroke="#000000" stroke-width="4" stroke-linecap="round" stroke-linejoin="round"/>
    <path d="M313.192,242.824 C318.486,233.258 329.815,234.489 334.515,243.89" fill-opacity="0" stroke="#000000" stroke-width="4" stroke-linecap="round" stroke-linejoin="round"/>
    <path d="M317.723,253.752 C306.272,269.296 327.127,284.49 330.784,262.548 C331.995,255.278 322.196,245.487 317.456,254.018" fill-opacity="0" stroke="#000000" stroke-width="4" stroke-linecap="round" stroke-linejoin="round"/>
    <path d="M317.456,267.079 C319.619,260.223 327.852,261.535 327.852,268.678" fill-opacity="0" stroke="#000000" stroke-width="4" stroke-linecap="round" stroke-linejoin="round"/>
    <path d="M319.056,268.945 C322.703,272.316 318.592,262.883 321.721,266.013 C322.507,266.799 321.188,270.544 322.521,270.811 C324.908,271.288 324.069,266.992 325.453,268.145" fill-opacity="0" stroke="#000000" stroke-width="4" stroke-linecap="round" stroke-linejoin="round"/>
    <path d="M324.92,267.079 L323.587,265.48" fill-opacity="0" stroke="#000000" stroke-width="4" stroke-linecap="round" stroke-linejoin="round"/>
    <path d="M269.212,329.184 C267.993,330.272 260.677,335.03 261.215,337.181 C262.371,341.804 295.693,328.611 299.331,327.052 C342.53,308.538 388.712,292.905 433.404,278.008 C480.743,264.914 471.587,355.167 435.879,335.329" fill-opacity="0" stroke="#000000" stroke-width="4" stroke-linecap="round" stroke-linejoin="round"/>
    <path d="M262.814,337.98 C263.951,341.783 265.906,348.798 266.546,352.641 C268.169,362.38 275.822,370.71 277.475,380.628 C278.87,389 276.885,406.531 281.473,413.413 C285.064,418.801 295.486,414.556 300.664,417.145 C320.032,426.828 338.036,462.963 364.635,449.663 C395.964,433.999 420.254,386.226 439.268,357.705 C443.284,351.681 444.515,350.189 450.996,337.447" fill-opacity="0" stroke="#000000" stroke-width="4" stroke-linecap="round" stroke-linejoin="round"/>
    <path d="M351.308,308.66 C360.741,332.324 395.24,375.806 417.678,387.025" fill-opacity="0" stroke="#000000" stroke-width="4" stroke-linecap="round" stroke-linejoin="round"/>
    <path d="M342.245,424.875 C344.049,420.382 345.444,419.01 353.44,411.281" fill-opacity="0" stroke="#000000" stroke-width="4" stroke-linecap="round" stroke-linejoin="round"/>
    <path d="M289.736,350.508 C292.532,346.361 296.884,346.698 301.464,347.843" fill-opacity="0" stroke="#000000" stroke-width="4" stroke-linecap="round" stroke-linejoin="round"/>
    <path d="M295.296,359.136 C293.031,364.764 294.472,375.726 301.903,376.866 C314.074,378.732 309.661,367.799 308.858,363.491 C308.316,360.581 300.508,353.074 295.643,358.514 C292.555,361.967 298.111,370.758 303.063,368.1 C313.673,362.406 290.162,358.492 298.078,363.802 C302.452,366.736 300.558,354.56 303.329,361.17" fill-opacity="0" stroke="#000000" stroke-width="4" stroke-linecap="round" stroke-linejoin="round"/>
    <path d="M301.197,213.77 C296.845,209.977 302.36,186.994 302.263,186.849 C299.118,182.13 281.868,219.249 291.601,190.047 C293.597,184.06 296.389,178.065 300.397,173.255 C301.121,172.386 303.071,171.953 302.796,170.856 C301.674,166.366 282.368,175.558 280.673,177.253" fill-opacity="0" stroke="#000000" stroke-width="4" stroke-linecap="round" stroke-linejoin="round"/>
    <path d="M321.721,192.979 C337.447,228.163 356.859,217.511 372.631,237.226 C374.453,239.503 383.139,258.444 384.626,258.816 C389.04,259.92 384.02,236.868 390.49,244.956 C396.899,252.967 403.444,260.468 408.082,269.745 C409.794,273.168 415.982,282.006 419.81,282.006" fill-opacity="0" stroke="#000000" stroke-width="4" stroke-linecap="round" stroke-linejoin="round"/>
    <path d="M279.873,175.654 C343.856,90.821 470.448,71.961 546.686,148.2 C557.702,159.216 567.349,170.739 572.275,185.516 C550.151,256.95 535.925,312.666 508.29,362.409 C493.737,375.143 478.221,375.917 460.363,373.866 C456.23,364.566 452.227,348.677 451.007,338.732" fill-opacity="0" stroke="#000000" stroke-width="4" stroke-linecap="round" stroke-linejoin="round"/>
    <path d="M376.097,442.467 L376.097,442.467" fill-opacity="0" stroke="#000000" stroke-width="4" stroke-linecap="round" stroke-linejoin="round"/>
    <path d="M377.429,445.132 C390.702,461.588 389.61,492.757 381.161,511.769" fill-opacity="0" stroke="#000000" stroke-width="4" stroke-linecap="round" stroke-linejoin="round"/>
    <path d="M490.711,374.497 C487.489,399.824 489.198,427.624 502.973,449.663" fill-opacity="0" stroke="#000000" stroke-width="4" stroke-linecap="round" stroke-linejoin="round"/>
    <path d="M384.76,498.612 C381.763,499.909 363.531,511.185 366.767,515.5 C370.023,519.841 390.642,510.03 394.388,508.48 C429.892,493.798 475.761,473.712 502.973,451.263 C513.634,442.467 512.568,433.137 499.241,440.867" fill-opacity="0" stroke="#000000" stroke-width="4" stroke-linecap="round" stroke-linejoin="round"/>
    <path d="M264.947,334.782 C263.507,337.146 263.393,337.439 265.213,335.315" fill-opacity="0" stroke="#000000" stroke-width="4" stroke-linecap="round" stroke-linejoin="round"/>
    <path d="M501.906,444.599 C502.157,444.953 502.6,448.586 503.239,448.331 C506.053,447.205 503.763,439.105 501.107,443.533 C500.394,444.721 504.227,441.259 505.105,440.601 C505.687,440.164 501.8,448.828 506.971,441.933" fill-opacity="0" stroke="#000000" stroke-width="4" stroke-linecap="round" stroke-linejoin="round"/>
    <path d="M369.166,513.101 C373.33,507.841 370.217,513.901 371.832,513.901 C373.746,513.901 374.501,505.683 375.854,507.036 C376.521,507.703 373.325,511.743 373.698,512.302 C374.878,514.071 378.706,504.352 378.983,504.629 C380.304,505.95 375.292,514.579 377.419,512.452 C378.534,511.337 380.887,505.128 381.427,503.506" fill-opacity="0" stroke="#000000" stroke-width="4" stroke-linecap="round" stroke-linejoin="round"/>
    <path d="M301.197,367.567 C301.993,367.864 302.638,367.207 303.329,367.034" fill-opacity="0" stroke="#000000" stroke-width="4" stroke-linecap="round" stroke-linejoin="round"/>
    <path d="M302.796,364.102 C303.489,368.489 296.773,360.317 300.131,359.571" fill-opacity="0" stroke="#000000" stroke-width="4" stroke-linecap="round" stroke-linejoin="round"/>
  </g>
</svg>
